<?xml version="1.0" encoding="utf-8"?>
<!-- Generator: Adobe Illustrator 16.0.0, SVG Export Plug-In . SVG Version: 6.00 Build 0)  -->
<!DOCTYPE svg PUBLIC "-//W3C//DTD SVG 1.1//EN" "http://www.w3.org/Graphics/SVG/1.1/DTD/svg11.dtd">
<svg version="1.1" id="Calque_1" xmlns="http://www.w3.org/2000/svg" xmlns:xlink="http://www.w3.org/1999/xlink" x="0px" y="0px"
	 width="173.971px" height="174.336px" viewBox="0 0 173.971 174.336" enable-background="new 0 0 173.971 174.336"
	 xml:space="preserve">
<path stroke="#000000" stroke-miterlimit="10" d="M66.204,106.439c0,6.627-5.373,12-12,12H28.261c-6.628,0-12-5.373-12-12V61.52
	c0-6.627,5.372-12,12-12h25.943c6.627,0,12,5.373,12,12V106.439z"/>
<path stroke="#000000" stroke-miterlimit="10" d="M53.671,49.52c0,0,14.27-20.55,41.736-21.001v110.55
	c0,0-27.014,8.242-41.736-20.629S53.671,49.52,53.671,49.52z"/>
<path fill="none" stroke="#000000" stroke-width="7" stroke-linecap="round" stroke-linejoin="round" stroke-miterlimit="10" d="
	M110.907,70.068c0,0,15.5,16,0,30.5"/>
<path fill="none" stroke="#000000" stroke-width="7" stroke-linecap="round" stroke-linejoin="round" stroke-miterlimit="10" d="
	M121.019,55.744c0,0,29.062,30,0,57.188"/>
<path fill="none" stroke="#000000" stroke-width="7" stroke-linecap="round" stroke-linejoin="round" stroke-miterlimit="10" d="
	M133.936,44.886c0,0,39.734,41.017,0,78.188"/>
</svg>
