<?xml version="1.0" encoding="utf-8"?>
<!-- Generator: Adobe Illustrator 16.0.0, SVG Export Plug-In . SVG Version: 6.00 Build 0)  -->
<!DOCTYPE svg PUBLIC "-//W3C//DTD SVG 1.1//EN" "http://www.w3.org/Graphics/SVG/1.1/DTD/svg11.dtd">
<svg version="1.1" id="Calque_1" xmlns="http://www.w3.org/2000/svg" xmlns:xlink="http://www.w3.org/1999/xlink" x="0px" y="0px"
	 width="173.972px" height="174.336px" viewBox="0 0 173.972 174.336" enable-background="new 0 0 173.972 174.336"
	 xml:space="preserve">
<circle stroke="#000000" stroke-miterlimit="10" cx="80.776" cy="89.682" r="32"/>
<path stroke="#000000" stroke-miterlimit="10" d="M127.516,145.582c-12.19,11.53-28.64,18.6-46.74,18.6s-34.55-7.07-46.74-18.6
	c11.25-18.3,28.01-29.9,46.74-29.9S116.266,127.282,127.516,145.582z"/>
<path fill="none" stroke="#000000" stroke-width="7" stroke-miterlimit="10" d="M148.846,96.112c0,19.49-8.19,37.07-21.33,49.47
	c-12.19,11.53-28.64,18.6-46.74,18.6s-34.55-7.07-46.74-18.6c-13.14-12.4-21.33-29.98-21.33-49.47c0-37.59,30.48-68.07,68.07-68.07
	S148.846,58.521,148.846,96.112z"/>
<path stroke="#000000" stroke-width="5" stroke-linecap="round" stroke-linejoin="round" stroke-miterlimit="10" d="M161.266,65.651
	c0,6.627-5.373,12-12,12h-16.5c-6.627,0-12-5.373-12-12v-16.5c0-6.627,5.373-12,12-12h16.5c6.627,0,12,5.373,12,12V65.651z"/>
<path fill="none" stroke="#000000" stroke-width="7" stroke-miterlimit="10" d="M160.726,45.581c0.19-1.32,0.29-2.68,0.29-4.07
	c0-13.3-9.02-24.08-20.15-24.08c-11.12,0-20.14,10.78-20.14,24.08c0,1.63,0.14,3.22,0.39,4.75"/>
<circle fill="#FFFFFF" cx="142.016" cy="51.345" r="5.083"/>
<polygon fill="#FFFFFF" points="141.88,51.329 135.766,67.248 148.1,67.248 "/>
</svg>
