<?xml version="1.0" encoding="utf-8"?>
<!-- Generator: Adobe Illustrator 16.0.0, SVG Export Plug-In . SVG Version: 6.00 Build 0)  -->
<!DOCTYPE svg PUBLIC "-//W3C//DTD SVG 1.1//EN" "http://www.w3.org/Graphics/SVG/1.1/DTD/svg11.dtd">
<svg version="1.1" id="Calque_1" xmlns="http://www.w3.org/2000/svg" xmlns:xlink="http://www.w3.org/1999/xlink" x="0px" y="0px"
	 width="173.971px" height="174.336px" viewBox="0 0 173.971 174.336" enable-background="new 0 0 173.971 174.336"
	 xml:space="preserve">
<ellipse cx="75.029" cy="75.816" rx="67.924" ry="50.062"/>
<polygon points="12.074,127.378 44.551,112.168 25.861,94.185 "/>
<path fill="none" stroke="#000000" stroke-width="7" d="M139.768,136.383l21.962,10.285l-8.151-19.639
	c6.043-6.022,9.614-13.476,9.614-21.532c0-20.015-22.016-36.242-49.174-36.242c-27.159,0-49.181,16.228-49.181,36.242
	c0,20.016,22.022,36.243,49.181,36.243C123.459,141.74,132.281,139.779,139.768,136.383z"/>
<g>
	<path fill="#FFFFFF" d="M45.97,76.701c0-2.901,1.988-4.995,4.834-4.995s4.78,2.041,4.78,4.995c0,2.847-1.934,4.942-4.834,4.942
		C47.958,81.644,45.97,79.548,45.97,76.701z"/>
	<path fill="#FFFFFF" d="M70.785,76.701c0-2.901,1.988-4.995,4.834-4.995c2.847,0,4.781,2.041,4.781,4.995
		c0,2.847-1.934,4.942-4.835,4.942C72.772,81.644,70.785,79.548,70.785,76.701z"/>
	<path fill="#FFFFFF" d="M95.599,76.701c0-2.901,1.988-4.995,4.834-4.995c2.847,0,4.781,2.041,4.781,4.995
		c0,2.847-1.934,4.942-4.834,4.942C97.587,81.644,95.599,79.548,95.599,76.701z"/>
</g>
</svg>
