<?xml version="1.0" encoding="utf-8"?>
<!-- Generator: Adobe Illustrator 16.0.0, SVG Export Plug-In . SVG Version: 6.00 Build 0)  -->
<!DOCTYPE svg PUBLIC "-//W3C//DTD SVG 1.1//EN" "http://www.w3.org/Graphics/SVG/1.1/DTD/svg11.dtd">
<svg version="1.1" id="Calque_1" xmlns="http://www.w3.org/2000/svg" xmlns:xlink="http://www.w3.org/1999/xlink" x="0px" y="0px"
	 width="173.971px" height="174.336px" viewBox="0 0 173.971 174.336" enable-background="new 0 0 173.971 174.336"
	 xml:space="preserve">
<path fill="none" stroke="#000000" stroke-width="10" stroke-linecap="round" stroke-linejoin="round" stroke-miterlimit="10" d="
	M88.867,36.885c0,0,29.998-24.629,50.899,7.198c11.311,17.223,3.085,36.247,3.085,36.247s-5.914,12.597-5.656,23.136
	s-2.86,23.907-6.957,29.048c-4.097,5.141-25.433,25.192-39.829,0"/>
<path fill="none" stroke="#000000" stroke-width="10" stroke-linecap="round" stroke-linejoin="round" stroke-miterlimit="10" d="
	M126.656,65.934c0,0-5.142-25.193-24.165-14.654C86.64,60.062,89.638,74.932,90.152,76.216c0,0,20.116-4.505,22.623,17.225
	c1.542,13.366-7.456,20.051-7.456,20.051"/>
<path fill="none" stroke="#000000" stroke-width="8" stroke-linecap="round" stroke-linejoin="round" stroke-miterlimit="10" d="
	M30.723,74.511c0,0,14.311,14.772,0,28.159"/>
<path fill="none" stroke="#000000" stroke-width="8" stroke-linecap="round" stroke-linejoin="round" stroke-miterlimit="10" d="
	M40.058,61.286c0,0,26.832,27.697,0,52.799"/>
<path fill="none" stroke="#000000" stroke-width="8" stroke-linecap="round" stroke-linejoin="round" stroke-miterlimit="10" d="
	M51.984,51.261c0,0,36.685,37.869,0,72.188"/>
</svg>
