<?xml version="1.0" encoding="utf-8"?>
<!-- Generator: Adobe Illustrator 16.0.0, SVG Export Plug-In . SVG Version: 6.00 Build 0)  -->
<!DOCTYPE svg PUBLIC "-//W3C//DTD SVG 1.1//EN" "http://www.w3.org/Graphics/SVG/1.1/DTD/svg11.dtd">
<svg version="1.1" id="Calque_1" xmlns="http://www.w3.org/2000/svg" xmlns:xlink="http://www.w3.org/1999/xlink" x="0px" y="0px"
	 width="173.972px" height="174.336px" viewBox="0 0 173.972 174.336" enable-background="new 0 0 173.972 174.336"
	 xml:space="preserve">
<circle stroke="#000000" stroke-miterlimit="10" cx="86.069" cy="59.67" r="32"/>
<path stroke="#000000" stroke-miterlimit="10" d="M135.338,151.67h-98.54c5.81-39.733,25.66-69,49.27-69
	C109.679,82.67,129.529,111.937,135.338,151.67z"/>
<path fill="none" stroke="#000000" stroke-width="7" stroke-miterlimit="10" d="M108.32,99.83
	c-12.547,6.889-22.278,23.608-25.721,44.507h77.081c-3.443-20.889-13.174-37.618-25.723-44.507
	c7.322-4.363,12.217-12.359,12.217-21.502c0-13.819-11.211-25.029-25.039-25.029c-13.819,0-25.03,11.21-25.03,25.029
	C96.104,87.471,101.007,95.466,108.32,99.83z"/>
<path fill="none" stroke="#000000" stroke-width="7" stroke-miterlimit="10" d="M40.015,98.881
	c-12.548,6.889-22.279,23.609-25.722,44.507h77.081C87.93,122.5,78.199,105.77,65.651,98.881
	c7.322-4.363,12.216-12.358,12.216-21.501c0-13.819-11.211-25.029-25.039-25.029c-13.819,0-25.03,11.21-25.03,25.029
	C27.799,86.522,32.702,94.518,40.015,98.881z"/>
</svg>
