<?xml version="1.0" encoding="utf-8"?>
<!-- Generator: Adobe Illustrator 16.0.0, SVG Export Plug-In . SVG Version: 6.00 Build 0)  -->
<!DOCTYPE svg PUBLIC "-//W3C//DTD SVG 1.1//EN" "http://www.w3.org/Graphics/SVG/1.1/DTD/svg11.dtd">
<svg version="1.1" id="Calque_1" xmlns="http://www.w3.org/2000/svg" xmlns:xlink="http://www.w3.org/1999/xlink" x="0px" y="0px"
	 width="173.971px" height="174.336px" viewBox="0 0 173.971 174.336" enable-background="new 0 0 173.971 174.336"
	 xml:space="preserve">
<path stroke="#000000" stroke-width="7" stroke-miterlimit="10" d="M103.752,82.728h61.392
	C165.144,82.728,138.824,239.125,103.752,82.728z"/>
<circle stroke="#000000" stroke-width="7" stroke-miterlimit="10" cx="39.208" cy="84.208" r="32.967"/>
<circle stroke="#000000" stroke-width="7" stroke-miterlimit="10" cx="134.448" cy="84.516" r="32.967"/>
<path d="M123.033,55.751l2.045,61.784c0,0-40.564-30.15-79.834,2.64l4.011-0.133l-2.141-64.708c0,0,40.564,30.152,79.833-2.641"/>
<path stroke="#000000" stroke-width="7" stroke-miterlimit="10" d="M8.122,83.483h61.392C69.514,83.483,43.193,239.88,8.122,83.483z
	"/>
<rect x="35.229" y="64.297" fill="#FFFFFF" width="7.178" height="36.811"/>
<rect x="20.413" y="79.114" fill="#FFFFFF" width="36.811" height="7.178"/>
<circle fill="#FFFFFF" cx="141.574" cy="71.982" r="7.288"/>
<circle fill="#FFFFFF" cx="148.862" cy="86.189" r="7.288"/>
<path fill="#FFFFFF" d="M141.576,93.474c0,4.025-3.263,7.288-7.29,7.288c-4.021,0-7.285-3.263-7.285-7.288
	c0-4.024,3.264-7.285,7.285-7.285C138.313,86.189,141.576,89.45,141.576,93.474z"/>
<circle fill="#FFFFFF" cx="127.001" cy="78.901" r="7.287"/>
<path d="M54.195,51.739c0,4.168-3.377,7.547-7.545,7.547H31.764c-4.168,0-7.544-3.379-7.544-7.547l0,0
	c0-4.167,3.376-7.546,7.544-7.546H46.65C50.818,44.193,54.195,47.572,54.195,51.739L54.195,51.739z"/>
<path d="M152.827,51.788c0,4.167-3.379,7.547-7.548,7.547h-14.884c-4.168,0-7.547-3.38-7.547-7.547l0,0
	c0-4.167,3.379-7.546,7.547-7.546h14.884C149.448,44.242,152.827,47.621,152.827,51.788L152.827,51.788z"/>
<rect x="72.834" y="90.137" fill="#FFFFFF" width="11.009" height="5.009"/>
<rect x="90.15" y="90.137" fill="#FFFFFF" width="11.006" height="5.009"/>
<circle cx="87.492" cy="69.739" r="8.386"/>
<path fill="none" stroke="#000000" stroke-width="8" stroke-linecap="round" stroke-miterlimit="10" d="M87.494,64.297
	c0,0-0.639-28.789,20.816-35.32"/>
</svg>
