<?xml version="1.0" encoding="utf-8"?>
<!-- Generator: Adobe Illustrator 16.0.0, SVG Export Plug-In . SVG Version: 6.00 Build 0)  -->
<!DOCTYPE svg PUBLIC "-//W3C//DTD SVG 1.1//EN" "http://www.w3.org/Graphics/SVG/1.1/DTD/svg11.dtd">
<svg version="1.1" id="Calque_1" xmlns="http://www.w3.org/2000/svg" xmlns:xlink="http://www.w3.org/1999/xlink" x="0px" y="0px"
	 width="173.972px" height="174.336px" viewBox="0 0 173.972 174.336" enable-background="new 0 0 173.972 174.336"
	 xml:space="preserve">
<rect x="30.384" y="23.821" stroke="#000000" stroke-width="7" stroke-miterlimit="10" width="97.338" height="138.186"/>
<rect x="38.243" y="31.729" fill="#FFFFFF" stroke="#FFFFFF" stroke-width="7" stroke-miterlimit="10" width="81.791" height="122.368"/>
<rect x="53.972" y="9.668" fill="none" stroke="#000000" stroke-width="7" stroke-miterlimit="10" width="50.164" height="15.816"/>
<line fill="none" stroke="#000000" stroke-width="7" stroke-miterlimit="10" x1="43.838" y1="46.712" x2="95.129" y2="46.712"/>
<line fill="none" stroke="#000000" stroke-width="7" stroke-miterlimit="10" x1="43.995" y1="70.437" x2="95.286" y2="70.437"/>
<line fill="none" stroke="#000000" stroke-width="7" stroke-miterlimit="10" x1="44.073" y1="92.913" x2="95.364" y2="92.913"/>
<line fill="none" stroke="#000000" stroke-width="7" stroke-miterlimit="10" x1="44.229" y1="116.637" x2="95.521" y2="116.637"/>
<line fill="none" stroke="#000000" stroke-width="7" stroke-miterlimit="10" x1="44.229" y1="139.947" x2="95.521" y2="139.947"/>
<rect x="141.253" y="52.332" width="9.291" height="95.315"/>
<polygon points="145.997,36.515 141.323,49.948 150.752,49.948 "/>
<path d="M150.543,150.285c0,2.564-2.081,4.646-4.645,4.646c-2.564,0-4.646-2.081-4.646-4.646H150.543z"/>
<polyline fill="none" stroke="#000000" stroke-width="7" stroke-miterlimit="10" points="102.749,41.745 106.887,48.478 
	116.175,35.01 "/>
<polyline fill="none" stroke="#000000" stroke-width="7" stroke-miterlimit="10" points="102.749,64.61 106.887,71.343 
	116.175,57.876 "/>
<polyline fill="none" stroke="#000000" stroke-width="7" stroke-miterlimit="10" points="102.749,87.012 106.887,93.746 
	116.175,80.278 "/>
</svg>
