<?xml version="1.0" encoding="utf-8"?>
<!-- Generator: Adobe Illustrator 16.0.0, SVG Export Plug-In . SVG Version: 6.00 Build 0)  -->
<!DOCTYPE svg PUBLIC "-//W3C//DTD SVG 1.1//EN" "http://www.w3.org/Graphics/SVG/1.1/DTD/svg11.dtd">
<svg version="1.1" id="Calque_1" xmlns="http://www.w3.org/2000/svg" xmlns:xlink="http://www.w3.org/1999/xlink" x="0px" y="0px"
	 width="173.972px" height="174.336px" viewBox="0 0 173.972 174.336" enable-background="new 0 0 173.972 174.336"
	 xml:space="preserve">
<circle stroke="#000000" stroke-miterlimit="10" cx="86.986" cy="83.24" r="32"/>
<path stroke="#000000" stroke-miterlimit="10" d="M133.726,139.14c-12.19,11.53-28.64,18.6-46.74,18.6s-34.55-7.07-46.74-18.6
	c11.25-18.3,28.01-29.9,46.74-29.9S122.476,120.84,133.726,139.14z"/>
<path fill="none" stroke="#000000" stroke-width="7" stroke-miterlimit="10" d="M155.056,89.67c0,19.49-8.19,37.07-21.33,49.47
	c-12.19,11.53-28.64,18.6-46.74,18.6s-34.55-7.07-46.74-18.6c-13.14-12.4-21.33-29.98-21.33-49.47c0-37.59,30.48-68.07,68.07-68.07
	S155.056,52.08,155.056,89.67z"/>
</svg>
