<?xml version="1.0" encoding="utf-8"?>
<!-- Generator: Adobe Illustrator 16.0.0, SVG Export Plug-In . SVG Version: 6.00 Build 0)  -->
<!DOCTYPE svg PUBLIC "-//W3C//DTD SVG 1.1//EN" "http://www.w3.org/Graphics/SVG/1.1/DTD/svg11.dtd">
<svg version="1.1" id="Calque_1" xmlns="http://www.w3.org/2000/svg" xmlns:xlink="http://www.w3.org/1999/xlink" x="0px" y="0px"
	 width="173.972px" height="174.336px" viewBox="0 0 173.972 174.336" enable-background="new 0 0 173.972 174.336"
	 xml:space="preserve">
<polygon fill="#FFFFFF" stroke="#000000" stroke-width="7" stroke-miterlimit="10" points="58.307,18.052 121.168,18.052 
	121.168,143.197 36.953,143.197 36.953,41.681 "/>
<polygon fill="#FFFFFF" stroke="#000000" stroke-width="7" stroke-miterlimit="2" points="36.953,41.681 58.307,18.052 
	58.307,41.681 "/>
<circle fill="#FFFFFF" stroke="#000000" stroke-width="7" stroke-miterlimit="10" cx="84.703" cy="94.03" r="22.17"/>
<circle fill="#FFFFFF" stroke="#000000" stroke-width="7" stroke-miterlimit="10" cx="84.703" cy="94.03" r="13.565"/>
<path fill="#FFFFFF" stroke="#000000" stroke-width="7" stroke-miterlimit="10" d="M99.801,110.261l19.964,37.614
	c1.481,2.791,0.417,6.258-2.373,7.739c-1.399,0.743-2.966,0.851-4.367,0.415c-1.396-0.428-2.634-1.396-3.372-2.787l-19.964-37.614
	L99.801,110.261z"/>
<path fill="#FFFFFF" stroke="#000000" stroke-width="7" stroke-miterlimit="10" d="M94.218,122.8c0,0,5.326,0.393,8.98-4.766"/>
</svg>
