<?xml version="1.0" encoding="utf-8"?>
<!-- Generator: Adobe Illustrator 16.0.0, SVG Export Plug-In . SVG Version: 6.00 Build 0)  -->
<!DOCTYPE svg PUBLIC "-//W3C//DTD SVG 1.1//EN" "http://www.w3.org/Graphics/SVG/1.1/DTD/svg11.dtd">
<svg version="1.1" id="Calque_1" xmlns="http://www.w3.org/2000/svg" xmlns:xlink="http://www.w3.org/1999/xlink" x="0px" y="0px"
	 width="173.971px" height="174.336px" viewBox="0 0 173.971 174.336" enable-background="new 0 0 173.971 174.336"
	 xml:space="preserve">
<path fill="none" stroke="#000000" stroke-width="10" stroke-linecap="round" stroke-linejoin="round" stroke-miterlimit="10" d="
	M52.849,48.046v98.885c0,4.617,3.469,8.356,7.747,8.356h52.699c4.285,0,7.756-3.74,7.756-8.356V50.045v-0.577v-1.421"/>
<path fill="none" stroke="#000000" stroke-width="10" stroke-linecap="round" stroke-linejoin="round" stroke-miterlimit="10" d="
	M133.049,53.276V33.031c0-0.945-4.686-1.71-10.465-1.71H51.399c-5.789,0-10.478,0.766-10.478,1.71v19.835v0.118v0.291"/>
<path fill="none" stroke="#000000" stroke-width="10" stroke-linecap="round" stroke-linejoin="round" stroke-miterlimit="10" d="
	M104.929,29.275V17.079c0-0.57-1.787-1.031-3.991-1.031H73.786c-2.208,0-3.996,0.461-3.996,1.031v11.949V29.1v0.175"/>
<line fill="none" stroke="#000000" stroke-width="10" stroke-linecap="round" stroke-linejoin="round" stroke-miterlimit="10" x1="69.79" y1="59.48" x2="69.79" y2="137.601"/>
<line fill="none" stroke="#000000" stroke-width="10" stroke-linecap="round" stroke-linejoin="round" stroke-miterlimit="10" x1="86.934" y1="59.48" x2="86.934" y2="137.601"/>
<line fill="none" stroke="#000000" stroke-width="10" stroke-linecap="round" stroke-linejoin="round" stroke-miterlimit="10" x1="103.43" y1="59.48" x2="103.43" y2="137.601"/>
</svg>
