<?xml version="1.0" encoding="utf-8"?>
<!-- Generator: Adobe Illustrator 16.0.0, SVG Export Plug-In . SVG Version: 6.00 Build 0)  -->
<!DOCTYPE svg PUBLIC "-//W3C//DTD SVG 1.1//EN" "http://www.w3.org/Graphics/SVG/1.1/DTD/svg11.dtd">
<svg version="1.1" id="Calque_1" xmlns="http://www.w3.org/2000/svg" xmlns:xlink="http://www.w3.org/1999/xlink" x="0px" y="0px"
	 width="173.971px" height="174.336px" viewBox="0 0 173.971 174.336" enable-background="new 0 0 173.971 174.336"
	 xml:space="preserve">
<g>
	<g>
		<path d="M74.479,119.899c0.178-2.835,0.354-8.061,0.354-12.933V57.013h13.464v24.711h0.178c2.567-3.72,7.086-6.111,13.108-6.111
			c10.362,0,17.98,8.591,17.892,21.878c0,15.589-9.921,23.384-19.842,23.384c-5.048,0-9.919-1.861-13.019-6.998h-0.177l-0.531,6.023
			H74.479z M88.297,101.477c0,0.886,0.088,1.683,0.266,2.392c0.885,3.631,3.985,6.377,7.883,6.377c5.758,0,9.301-4.43,9.301-12.224
			c0-6.731-3.012-12.046-9.301-12.046c-3.631,0-6.998,2.745-7.883,6.644c-0.178,0.797-0.266,1.594-0.266,2.479V101.477z"/>
		<path d="M160.574,118.837c-2.391,1.062-6.908,1.948-12.046,1.948c-13.994,0-22.939-8.503-22.939-22.144
			c0-12.666,8.679-23.029,24.8-23.029c3.544,0,7.44,0.62,10.275,1.684l-2.126,10.009c-1.595-0.709-3.986-1.329-7.528-1.329
			c-7.087,0-11.692,5.05-11.604,12.135c0,7.972,5.314,12.135,11.869,12.135c3.189,0,5.669-0.532,7.706-1.329L160.574,118.837z"/>
	</g>
	<g>
		<path d="M26.824,100.402l-4.886,18.042H5.856l20.968-70.289h20.358l21.274,70.289H51.763l-5.292-18.042H26.824z M44.23,88.514
			l-4.274-14.913c-1.222-4.172-2.442-9.387-3.461-13.558h-0.204c-1.018,4.171-2.034,9.491-3.155,13.558l-4.07,14.913H44.23z"/>
	</g>
</g>
</svg>
