<?xml version="1.0" encoding="utf-8"?>
<!-- Generator: Adobe Illustrator 16.0.0, SVG Export Plug-In . SVG Version: 6.00 Build 0)  -->
<!DOCTYPE svg PUBLIC "-//W3C//DTD SVG 1.1//EN" "http://www.w3.org/Graphics/SVG/1.1/DTD/svg11.dtd">
<svg version="1.1" id="Calque_1" xmlns="http://www.w3.org/2000/svg" xmlns:xlink="http://www.w3.org/1999/xlink" x="0px" y="0px"
	 width="173.972px" height="174.336px" viewBox="0 0 173.972 174.336" enable-background="new 0 0 173.972 174.336"
	 xml:space="preserve">
<rect x="17.172" y="30.762" transform="matrix(0.939 -0.344 0.344 0.939 -9.9932 31.6725)" fill="#FFFFFF" stroke="#000000" stroke-width="7" stroke-linecap="round" stroke-linejoin="round" stroke-miterlimit="10" width="134.202" height="26.481"/>
<rect x="26.645" y="83.739" stroke="#000000" stroke-width="7" stroke-linecap="round" stroke-linejoin="round" stroke-miterlimit="10" width="125.189" height="82.109"/>
<rect x="20.836" y="51.418" transform="matrix(0.939 -0.344 0.344 0.939 -20.5405 13.5372)" stroke="#000000" stroke-width="7" stroke-linecap="round" stroke-linejoin="round" stroke-miterlimit="10" width="14.092" height="26.481"/>
<rect x="115.403" y="16.197" transform="matrix(0.939 -0.344 0.344 0.939 -2.6536 43.918)" stroke="#000000" stroke-width="7" stroke-linecap="round" stroke-linejoin="round" stroke-miterlimit="10" width="14.092" height="26.481"/>
<rect x="83.888" y="28.498" transform="matrix(0.939 -0.344 0.344 0.939 -8.8082 33.8276)" stroke="#000000" stroke-width="7" stroke-linecap="round" stroke-linejoin="round" stroke-miterlimit="10" width="14.092" height="26.481"/>
<rect x="52.464" y="40.232" transform="matrix(0.939 -0.344 0.344 0.939 -14.7623 23.7342)" stroke="#000000" stroke-width="7" stroke-linecap="round" stroke-linejoin="round" stroke-miterlimit="10" width="14.092" height="26.481"/>
<polygon fill="#FFFFFF" stroke="#FFFFFF" stroke-width="6" stroke-linejoin="round" stroke-miterlimit="10" points="113.76,125.976 
	75.018,101.09 75.018,151.295 "/>
</svg>
